<svg width="856" height="676" viewBox="0 0 856 676" fill="none" xmlns="http://www.w3.org/2000/svg">
<rect width="856" height="676" fill="#E5E5E5"/>
<g clip-path="url(#clip0)">
<path d="M614.913 661.163C720.4 661.163 805.913 654 805.913 645.163C805.913 636.327 720.4 629.163 614.913 629.163C509.427 629.163 423.913 636.327 423.913 645.163C423.913 654 509.427 661.163 614.913 661.163Z" fill="#3F3D56"/>
<path d="M713.844 561.938L714.91 496.319L759.283 415.14L715.077 486.026L715.556 456.521L746.138 397.788L715.683 448.713L716.545 395.647L749.293 348.889L716.681 387.303L717.219 290L713.834 418.812L714.112 413.498L680.817 362.534L713.578 423.699L710.476 482.964L710.384 481.391L672 427.759L710.268 486.948L709.88 494.359L709.81 494.471L709.842 495.079L701.971 645.44H712.487L713.749 567.776L751.922 508.732L713.844 561.938Z" fill="#3F3D56"/>
<path d="M772.387 607.274C772.387 629.743 759.03 637.588 742.553 637.588C742.171 637.588 741.79 637.584 741.41 637.575C740.646 637.559 739.89 637.523 739.143 637.472C724.272 636.419 712.719 628.17 712.719 607.274C712.719 585.649 740.353 558.362 742.429 556.342L742.433 556.339C742.513 556.261 742.553 556.222 742.553 556.222C742.553 556.222 772.387 584.806 772.387 607.274Z" fill="#6C63FF"/>
<path d="M741.466 634.151L752.378 618.904L741.439 635.825L741.41 637.575C740.646 637.559 739.89 637.523 739.143 637.472L740.319 614.992L740.31 614.818L740.33 614.785L740.441 612.662L729.475 595.699L740.475 611.07L740.501 611.52L741.39 594.536L732.001 577.008L741.504 591.555L742.429 556.342L742.433 556.222V556.339L742.278 584.106L751.625 573.098L742.24 586.498L741.993 601.705L750.72 587.11L741.957 603.942L741.819 612.396L754.488 592.084L741.771 615.347L741.466 634.151Z" fill="#3F3D56"/>
<path d="M392 345C426.794 345 455 316.794 455 282C455 247.206 426.794 219 392 219C357.206 219 329 247.206 329 282C329 316.794 357.206 345 392 345Z" fill="#F2F2F2"/>
<path d="M405 326C439.794 326 468 297.794 468 263C468 228.206 439.794 200 405 200C370.206 200 342 228.206 342 263C342 297.794 370.206 326 405 326Z" stroke="#3F3D56" stroke-width="2" stroke-miterlimit="10"/>
<path d="M317 164L266.299 78.7777C272.382 71.0285 275.448 61.3234 274.925 51.4728C274.403 41.6221 270.327 32.2987 263.458 25.2417C256.59 18.1848 247.397 13.8762 237.596 13.1197C227.795 12.3633 218.055 15.2106 210.192 21.1306C202.328 27.0506 196.88 35.6389 194.862 45.2935C192.845 54.948 194.396 65.0095 199.226 73.6009C204.056 82.1924 211.836 88.7271 221.114 91.986C230.392 95.2449 240.535 95.0055 249.65 91.3125L317 164Z" fill="#3F3D56"/>
<path d="M234.5 72C244.717 72 253 63.4934 253 53C253 42.5066 244.717 34 234.5 34C224.283 34 216 42.5066 216 53C216 63.4934 224.283 72 234.5 72Z" fill="#6C63FF"/>
<path d="M480 154L550.552 83.8603C559.57 87.9174 569.756 88.5563 579.21 85.6578C588.664 82.7593 596.74 76.5213 601.933 68.1075C607.125 59.6938 609.079 49.6788 607.429 39.9309C605.78 30.1829 600.64 21.3678 592.968 15.1298C585.297 8.89179 575.617 5.657 565.736 6.02883C555.854 6.40067 546.446 10.3537 539.265 17.1506C532.084 23.9475 527.621 33.124 526.709 42.9683C525.797 52.8126 528.499 62.6524 534.309 70.6522L480 154Z" fill="#3F3D56"/>
<path d="M567.5 66C577.717 66 586 57.4934 586 47C586 36.5066 577.717 28 567.5 28C557.283 28 549 36.5066 549 47C549 57.4934 557.283 66 567.5 66Z" fill="#6C63FF"/>
<path d="M529 310L614.161 361.252C612.405 370.939 614.25 380.932 619.351 389.365C624.453 397.799 632.463 404.097 641.887 407.086C651.311 410.075 661.506 409.549 670.57 405.608C679.633 401.667 686.947 394.579 691.146 385.666C695.345 376.753 696.143 366.625 693.391 357.17C690.639 347.715 684.525 339.579 676.189 334.28C667.853 328.981 657.865 326.881 648.088 328.372C638.311 329.862 629.412 334.842 623.053 342.381L529 310Z" fill="#3F3D56"/>
<path d="M654.5 387C664.717 387 673 378.493 673 368C673 357.507 664.717 349 654.5 349C644.283 349 636 357.507 636 368C636 378.493 644.283 387 654.5 387Z" fill="#6C63FF"/>
<path d="M390.027 395L360.836 489.827C351.025 490.476 341.784 494.683 334.838 501.664C327.891 508.645 323.713 517.922 323.083 527.766C322.453 537.609 325.414 547.346 331.413 555.161C337.412 562.976 346.041 568.334 355.688 570.237C365.336 572.139 375.344 570.456 383.845 565.501C392.347 560.546 398.761 552.658 401.892 543.307C405.023 533.957 404.656 523.783 400.86 514.684C397.065 505.585 390.099 498.182 381.263 493.856L390.027 395Z" fill="#3F3D56"/>
<path d="M363 549C373.493 549 382 540.493 382 530C382 519.507 373.493 511 363 511C352.507 511 344 519.507 344 530C344 540.493 352.507 549 363 549Z" fill="#6C63FF"/>
<path d="M273 280.595L174.136 275.138C171.133 265.775 164.823 257.824 156.383 252.767C147.944 247.71 137.951 245.894 128.27 247.656C118.589 249.418 109.879 254.639 103.767 262.345C97.6549 270.05 94.557 279.714 95.0512 289.534C95.5454 299.354 99.5981 308.659 106.453 315.713C113.308 322.767 122.498 327.088 132.307 327.871C142.117 328.654 151.876 325.845 159.765 319.968C167.654 314.091 173.134 305.547 175.183 295.93L273 280.595Z" fill="#3F3D56"/>
<path d="M135.5 306C145.717 306 154 297.493 154 287C154 276.507 145.717 268 135.5 268C125.283 268 117 276.507 117 287C117 297.493 125.283 306 135.5 306Z" fill="#6C63FF"/>
<path d="M781.542 65.5111C789.691 65.5111 796.298 58.9048 796.298 50.7556C796.298 42.6063 789.691 36 781.542 36C773.393 36 766.786 42.6063 766.786 50.7556C766.786 58.9048 773.393 65.5111 781.542 65.5111Z" fill="#F2F2F2"/>
<path d="M775.542 60.5111C783.691 60.5111 790.298 53.9048 790.298 45.7556C790.298 37.6063 783.691 31 775.542 31C767.393 31 760.786 37.6063 760.786 45.7556C760.786 53.9048 767.393 60.5111 775.542 60.5111Z" stroke="#3F3D56" stroke-width="2" stroke-miterlimit="10"/>
<path d="M688.333 54.0702H655V87.4036H688.333V54.0702Z" fill="#6C63FF"/>
<path d="M695 47.4035H661.667V80.7369H695V47.4035Z" stroke="#3F3D56" stroke-width="2" stroke-miterlimit="10"/>
</g>
<path opacity="0.1" d="M614 676C747.653 676 856 661.449 856 643.5C856 625.551 747.653 611 614 611C480.347 611 372 625.551 372 643.5C372 661.449 480.347 676 614 676Z" fill="#6C63FF"/>
<path d="M673.53 205.609C673.53 205.609 666.04 190.846 667.051 186.458C668.062 182.069 661.782 172.697 661.782 172.697L662.188 157.147C662.188 157.147 661.32 158.737 656.799 160.128C656.417 159.627 656.003 159.134 655.573 158.665C653.936 156.962 652.116 155.445 650.145 154.142L642.185 136.986L634.489 125.213C634.489 125.213 622.35 100.569 609.814 95.131L607.84 91.2754C607.905 91.237 607.953 91.1758 607.975 91.1037C607.998 91.0317 607.992 90.954 607.96 90.8859L605.954 86.9666C605.918 86.8989 605.858 86.8467 605.786 86.8203C605.714 86.7939 605.635 86.795 605.564 86.8235L603.646 83.0713C602.913 78.2086 601 73.5988 598.074 69.6442C597.875 69.3659 597.66 69.1115 597.453 68.8492L600.573 68.7379C603.311 68.6345 606.368 68.396 608.206 66.353C608.865 65.5915 609.351 64.6965 609.631 63.7296C609.868 62.9718 610.022 62.1909 610.093 61.4003C610.093 61.281 610.093 61.1618 610.093 61.0505C610.093 60.7802 610.093 60.5152 610.093 60.2555C610.093 60.0409 610.093 59.8342 610.093 59.6195C610.093 59.4049 610.093 59.2777 610.093 59.1108C610.093 58.9438 610.005 58.5622 609.957 58.3158C609.957 58.2124 609.957 58.1091 609.894 58.0057C609.827 57.6943 609.745 57.3865 609.647 57.0836C609.624 57.0242 609.605 56.963 609.591 56.9007C609.48 56.5827 609.36 56.2647 609.225 55.9547C609.203 55.9138 609.185 55.8713 609.169 55.8275C609.026 55.5175 608.867 55.2154 608.7 54.9212L608.652 54.8258C608.593 54.7025 608.527 54.583 608.453 54.4681C606.296 51.0815 602.507 49.102 598.902 47.3133C595.537 45.5465 592.083 43.9545 588.554 42.5435C575.433 37.6286 560.938 37.833 547.961 43.1159C546.679 43.6006 545.465 44.2472 544.347 45.0397C542.79 46.3566 541.459 47.9196 540.407 49.6665L534.239 58.7689C533.377 59.8762 532.702 61.1168 532.241 62.4417C531.087 66.7664 534.708 71.099 534.302 75.5588C534.096 77.7767 532.902 79.8119 532.671 82.0298C532.376 84.8918 533.706 87.6503 535.003 90.234L543.83 107.723C543.36 110.021 542.843 112.374 542.278 114.648C538.211 118.845 536.842 121.135 536.467 122.375L536.348 122.438C535.543 122.958 534.85 123.634 534.31 124.426L525.921 132.566C525.921 132.566 511.339 136.35 508.307 141.144C508.307 141.144 485.423 140.142 485.622 172.061C485.622 172.061 484.611 184.033 484.03 185.631C483.449 187.229 484.03 203.383 484.03 203.383L483.76 236.104C483.76 236.104 482.884 253.458 483.76 259.643C484.635 265.828 485.646 289.367 485.646 289.367C485.646 289.367 491.114 312.31 489.093 320.49C487.151 328.321 489.093 345.444 492.276 345.516C492.881 346.764 493.574 347.376 494.33 347.026C494.659 346.884 494.997 346.762 495.341 346.661V366.209C495.341 366.209 491.401 393.596 495.818 398.803C492.889 402.969 489.451 410.076 488.575 411.944L457.613 410.282L453.673 411.387L450.059 412.397L447.87 462.695L448.746 462.759L448.682 464.293L450.752 464.444L447.87 515.1L490.732 518.621C488.846 522.843 486.657 527.366 485.805 527.803C484.213 528.598 480.743 526.213 479.931 527.199C479.119 528.185 476.692 529.393 473.858 528.789C471.025 528.185 469.202 531.381 469.202 531.381C469.202 531.381 469.616 531.746 470.237 532.422C465.636 531.866 459.818 534.33 456.658 535.92C455.241 536.636 454.357 537.168 454.357 537.168H446L450.593 566.431L453.832 568.641L454.628 591.695C454.628 591.695 467.586 631.595 473.524 631.333C473.909 631.319 474.287 631.223 474.632 631.05C474.977 630.877 475.28 630.632 475.522 630.331C478.706 626.658 476.501 614.042 476.501 614.042V593.039C476.501 593.039 481.356 590.908 480.815 589.31C480.274 587.713 488.647 570.231 489.395 568.641C489.417 568.628 489.434 568.609 489.445 568.587C489.456 568.564 489.461 568.539 489.459 568.514C489.459 566.717 493.104 564.722 492.897 563.927C492.69 563.132 501.812 558.14 502.449 553.751C503.085 549.363 509.127 551.756 509.127 551.756L516.816 542.932C517.046 553.688 517.484 561.216 518.24 563.124C521.886 572.306 523.302 586.671 523.302 586.671C523.302 586.671 521.074 597.642 523.302 601.235C524.672 603.429 527.855 605.782 530.068 607.73C527.768 614.694 528.094 629.496 528.094 629.496V638.003L545.104 642.772C545.104 642.772 545.637 638.519 546.449 638.519C547.261 638.519 558.062 646.763 558.062 646.763C558.062 646.763 599.642 647.296 610.164 646.763C614.144 646.564 615.227 644.855 614.614 642.788C613.603 639.346 607.928 634.886 602.881 634.545C594.779 634.012 584.519 625.506 584.519 625.506C584.519 625.506 585.315 623.637 581.009 620.982C578.032 619.154 569.794 611.753 564.7 607.42C564.939 607.094 565.185 606.768 565.416 606.418C565.416 606.418 558.531 596.879 559.956 592.649C561.381 588.42 559.343 582.315 559.343 582.315C559.343 582.315 555.499 570.541 555.499 564.555C555.499 560.763 554.926 539.195 554.512 523.9L558.062 524.194L558.133 522.668L559.725 522.811L574.776 524.194L574.315 508.128C581.566 504.948 587.599 501.999 590.098 500.114C598.599 493.755 605.89 493.333 605.89 493.333C605.89 493.333 623.098 484.159 625.733 480.367C628.368 476.575 628.121 449.045 628.121 449.045L626.704 390.042V389.995C626.704 389.995 625.494 361.471 623.059 355.286C622.167 352.997 619.962 345.365 617.551 336.652C618.937 336.509 620.336 336.568 621.706 336.827C621.793 338.957 621.849 340.42 621.849 340.921C621.849 344.308 626.704 347.185 626.704 347.185L623.266 270.868V218.948C633.868 222.319 659.505 223.368 659.505 223.368C677.979 222.398 673.53 205.609 673.53 205.609ZM573.527 140.039H573.471C573.848 138.038 574.339 136.061 574.944 134.117L573.527 140.039ZM503.945 401.8C510.225 402.834 517.476 402.531 518.025 401.315C518.081 401.196 518.153 400.981 518.248 400.703C518.447 401.053 518.638 401.411 518.837 401.776L518.224 413.287V413.55L497.53 412.437C498.978 406.276 501.716 403.271 503.945 401.8ZM572.93 459.881L572.397 441.239C573.32 437.804 574.148 434.688 574.856 432.017C575.174 434.235 575.445 436.278 575.652 438.162C577.61 455.85 574.721 459.3 572.93 459.881ZM631.83 180.384C630.644 180.837 626.131 177.999 621.849 175.058C621.849 174.517 621.889 173.984 621.912 173.468C622.517 161.297 602.674 153.721 596.601 152.321C595.128 151.942 593.698 151.409 592.335 150.731C589.099 149.131 585.953 147.355 582.911 145.413L582.991 145.183C582.991 145.183 575.159 140.23 574.991 134.053C576.776 128.435 579.029 122.975 581.725 117.732C581.876 117.422 582.043 117.096 582.203 116.786C585.904 115.636 589.359 113.809 592.391 111.396C593.609 127.296 616.643 140.977 616.643 140.977L619.103 144.952L619.684 145.89C618.442 146.621 617.845 147.21 618.267 147.552C620.018 148.951 624.253 156.869 626.004 160.216C626.481 161.122 626.8 161.686 626.8 161.686C626.8 161.686 630.564 171.918 632.721 180.479C632.435 180.36 632.119 180.327 631.814 180.384H631.83Z" fill="url(#paint0_linear)"/>
<path d="M641 138.879L640.729 139.238L639.805 140.473L622.081 153L618.321 146.816L615.932 142.832C615.932 142.832 580.603 121.635 595.794 101.204C610.985 80.7718 633.433 127.102 633.433 127.102L641 138.879Z" fill="#FFC5D3"/>
<path d="M605.066 89.378C604.991 89.2289 604.809 89.1689 604.66 89.244C604.511 89.3191 604.451 89.5008 604.526 89.6499L606.493 93.5569C606.569 93.706 606.75 93.766 606.899 93.6909C607.048 93.6158 607.108 93.4341 607.033 93.285L605.066 89.378Z" fill="#3A3768"/>
<path d="M584.871 94.8406L584.863 94.8442C584.781 94.8857 584.748 94.9861 584.789 95.0685L585.376 96.2335C585.418 96.3159 585.518 96.3491 585.6 96.3076L585.608 96.304C585.69 96.2625 585.723 96.1621 585.682 96.0797L585.095 94.9147C585.053 94.8323 584.953 94.7992 584.871 94.8406Z" fill="#3A3768"/>
<path d="M586.477 97.5992C586.43 97.5051 586.315 97.4672 586.221 97.5146C586.126 97.562 586.089 97.6768 586.136 97.771L587.249 99.9802C587.296 100.074 587.411 100.112 587.505 100.065C587.599 100.017 587.637 99.9026 587.59 99.8085L586.477 97.5992Z" fill="#3A3768"/>
<path d="M588.192 101.038C588.147 100.948 588.037 100.911 587.947 100.957C587.856 101.002 587.82 101.112 587.865 101.202L588.996 103.447C589.041 103.537 589.151 103.574 589.242 103.528C589.332 103.483 589.368 103.373 589.323 103.283L588.192 101.038Z" fill="#3A3768"/>
<path d="M598.894 81.7065L584.033 89.1905C583.154 89.6331 582.8 90.7043 583.243 91.5831L600.107 125.07C600.549 125.949 601.621 126.302 602.499 125.86L617.36 118.376C618.239 117.933 618.593 116.862 618.15 115.983L601.286 82.4964C600.844 81.6176 599.772 81.264 598.894 81.7065Z" fill="#3A3768"/>
<path d="M597.343 83.9896C597.259 84.0321 597.184 84.0911 597.122 84.1633C597.061 84.2356 597.014 84.3196 596.985 84.4104C596.955 84.5012 596.944 84.597 596.952 84.6923C596.959 84.7876 596.985 84.8803 597.029 84.9652L597.091 85.1012C597.135 85.1867 597.161 85.28 597.169 85.3759C597.176 85.4718 597.165 85.5682 597.136 85.6597C597.107 85.7512 597.06 85.8358 596.998 85.9088C596.937 85.9818 596.861 86.0416 596.777 86.0848L589.214 89.9552C589.131 89.9991 589.04 90.0256 588.946 90.0333C588.852 90.041 588.758 90.0296 588.669 89.9998C588.579 89.97 588.497 89.9225 588.426 89.8599C588.355 89.7973 588.297 89.721 588.255 89.6353L588.184 89.4994C588.143 89.4138 588.085 89.3374 588.014 89.2746C587.943 89.2118 587.861 89.1638 587.772 89.1334C587.682 89.1029 587.588 89.0906 587.495 89.0972C587.401 89.1037 587.309 89.129 587.225 89.1715L585.755 89.9312C585.594 90.0118 585.45 90.1244 585.332 90.2621C585.214 90.3999 585.125 90.5602 585.068 90.7337C585.012 90.9071 584.99 91.0903 585.004 91.2724C585.018 91.4545 585.068 91.632 585.15 91.7944L601.219 124.237C601.384 124.566 601.669 124.815 602.014 124.93C602.358 125.045 602.734 125.017 603.058 124.853L616.25 118.096C616.573 117.928 616.818 117.637 616.931 117.287C617.044 116.936 617.017 116.554 616.855 116.224L600.778 83.7657C600.698 83.6023 600.586 83.4567 600.449 83.3373C600.313 83.2178 600.155 83.1269 599.984 83.0697C599.813 83.0125 599.633 82.9902 599.454 83.0039C599.274 83.0177 599.099 83.0674 598.939 83.15L597.343 83.9896Z" fill="#6C63FF"/>
<path d="M592.546 86.2762L590.535 87.2886C590.394 87.3598 590.337 87.5319 590.409 87.6732C590.48 87.8144 590.652 87.8712 590.793 87.8001L592.803 86.7877C592.945 86.7166 593.001 86.5444 592.93 86.4032C592.859 86.262 592.687 86.2051 592.546 86.2762Z" fill="#E6E8EC"/>
<path d="M607.973 208L603 341C603 341 619.71 335.449 622.296 339.612C624.882 343.775 619.511 273.001 619.511 273.001L607.973 208Z" fill="#5F5570"/>
<path opacity="0.15" d="M607.973 208L603 341C603 341 619.71 335.449 622.296 339.612C624.882 343.775 619.511 273.001 619.511 273.001L607.973 208Z" fill="black"/>
<path d="M609.483 647.758C599.16 648.302 558.398 647.758 558.398 647.758C558.398 647.758 547.805 639.375 547.011 639.375C546.217 639.375 545.693 643.7 545.693 643.7L529.016 638.831V630.179C529.016 630.179 528.484 605.547 533.511 604.476C538.538 603.405 560.781 604.476 560.781 604.476C561.575 604.208 576.663 618.817 580.895 621.52C585.128 624.222 584.334 626.121 584.334 626.121C584.334 626.121 594.395 634.773 602.336 635.317C607.284 635.658 612.85 640.186 613.843 643.7C614.447 645.819 613.375 647.555 609.483 647.758Z" fill="#BC8487"/>
<path opacity="0.1" d="M609.483 647.754C599.157 648.308 558.388 647.754 558.388 647.754C558.388 647.754 547.792 639.204 546.998 639.204C546.204 639.204 545.68 643.615 545.68 643.615L529 638.649V630L544.615 635.893L557.061 643.615H613.843C614.447 645.775 613.374 647.547 609.483 647.754Z" fill="black"/>
<g opacity="0.1">
<path d="M563 635C563 635 575.584 621.976 584 625.655Z" fill="black"/>
<path d="M563 635C563 635 575.584 621.976 584 625.655" stroke="black" stroke-miterlimit="10"/>
</g>
<path d="M482.451 589.977C482.988 591.573 478.181 593.703 478.181 593.703V614.71C478.181 614.71 480.36 627.323 477.211 631.001C476.975 631.3 476.676 631.544 476.336 631.716C475.996 631.888 475.622 631.984 475.241 631.999C469.368 632.262 456.549 592.371 456.549 592.371L455.748 569.322L452.543 567.112L448 537.855H456.284C456.284 537.855 457.158 537.321 458.56 536.603C462.566 534.568 470.954 531.018 475.513 534.401L491 569.146C491 569.146 481.922 588.382 482.451 589.977Z" fill="#BC8487"/>
<path opacity="0.1" d="M477 631.006C476.765 631.303 476.469 631.545 476.131 631.717C475.793 631.888 475.422 631.985 475.043 631.999C469.213 632.261 456.487 592.536 456.487 592.536L455.691 569.583L452.51 567.382L448 538.247H456.224C456.224 538.247 457.091 537.715 458.483 537L460.464 566.849L461.522 592.536C461.522 592.536 471.512 620.502 477 631.006Z" fill="black"/>
<path d="M624.589 481.08C622.006 484.854 605.117 493.991 605.117 493.991C605.117 493.991 597.965 494.388 589.619 500.744C585.304 504.033 570.307 510.556 556.835 516.094C544.254 521.267 532.992 525.573 532.992 525.573L520.021 540.669L510.142 552.166C510.142 552.166 504.182 549.782 503.586 554.152C502.989 558.522 494.048 563.488 494.247 564.282C494.446 565.077 490.869 567.063 490.869 568.851C490.869 570.639 477.557 555.94 477.756 547.001C477.954 538.063 471 531.905 471 531.905C471 531.905 472.788 528.727 475.57 529.323C478.352 529.919 480.736 528.727 481.531 527.734C482.325 526.741 485.703 529.125 487.293 528.33C488.882 527.535 495.24 511.844 495.24 511.844L520.013 495.23L569.289 462.209L571.562 460.684C571.562 460.684 578.119 463.687 575.457 439.081C574.94 434.314 574.074 428.522 572.754 421.466C564.608 377.966 593.816 373 593.816 373L619.447 381.541L625.607 391.075V391.123L626.998 449.87C626.998 449.87 627.172 477.306 624.589 481.08Z" fill="#433A59"/>
<path opacity="0.1" d="M556.447 509.402C556.447 509.402 556.526 512.206 556.644 516.567C544.169 521.709 533.003 525.991 533.003 525.991L520.142 541C519.93 528.558 519.977 512.396 520.142 495.83L569 463C562.956 485.458 556.447 509.402 556.447 509.402Z" fill="black"/>
<path opacity="0.1" d="M626 391.053V391.101L586.947 391.847C586.947 391.847 580.103 418.233 579.096 423.788C578.847 425.152 577.333 430.985 575.191 439C574.668 434.239 573.79 428.454 572.453 421.407C564.2 377.96 593.792 373 593.792 373L619.76 381.531L626 391.053Z" fill="black"/>
<path d="M523.612 318.78L518.603 414.471C518.603 414.471 514.996 555.017 518.603 564.188C522.21 573.358 523.612 587.712 523.612 587.712C523.612 587.712 521.408 598.677 523.612 602.265C525.816 605.853 532.829 609.84 532.629 611.834C532.428 613.828 554.068 624.593 565.289 607.448C565.289 607.448 558.476 597.879 559.879 593.693C561.281 589.506 559.278 583.326 559.278 583.326C559.278 583.326 555.471 571.564 555.471 565.559C555.471 559.555 554.068 509.341 554.068 509.341C554.068 509.341 575.908 429.598 576.91 424.016C577.912 418.434 584.724 391.92 584.724 391.92L626 391.122C626 391.122 624.798 362.614 622.393 356.434C619.989 350.254 608.167 305 608.167 305L523.612 318.78Z" fill="#433A59"/>
<path d="M455.678 413L452.142 414.034L452 417.603L558 419V417.595L455.678 413Z" fill="#7B728F"/>
<path d="M581.499 119.947C565.892 151.572 575.585 158.184 577.129 159C573.824 157.465 530.861 137.299 536.511 132.181C540.185 128.847 543.33 114.342 545.179 103.947C546.276 97.7417 546.916 93 546.916 93L592 101.26C587.63 108.297 584.157 114.494 581.499 119.947Z" fill="#FFC5D3"/>
<path opacity="0.1" d="M640 139.191L639.094 140.431L621.686 153L618 146.795C623.365 143.597 639.453 138 639.453 138L640 139.191Z" fill="black"/>
<path d="M656.826 168.484C655.23 174.145 628.297 168.484 628.297 168.484L625.504 164.036C625.504 164.036 625.225 163.47 624.754 162.548C623.03 159.16 618.856 151.138 617.133 149.715C614.938 147.895 640.674 139 640.674 139L648.558 156.386C650.502 157.71 652.295 159.248 653.905 160.972C655.9 163.163 657.552 165.904 656.826 168.484Z" fill="#E5E8EF"/>
<path d="M612 171C612 171 627.982 183.44 630.379 182.541C632.777 181.642 671.533 207.46 671.533 207.46C671.533 207.46 675.928 224.015 657.749 225C657.749 225 619.192 223.423 617.594 217.905C615.996 212.387 612 171 612 171Z" fill="#5F5570"/>
<path opacity="0.1" d="M569.311 146.024L552 163.897L576.276 318L585.827 312.44C585.827 312.44 610.5 323.362 612.49 313.234C614.48 303.106 613.931 263.19 613.931 263.19L610.699 191.079C610.699 191.079 599.357 165.859 599.357 165.064C599.357 164.27 583.001 151.958 583.001 151.958L575.281 146L569.311 146.024Z" fill="black"/>
<path d="M569.311 143.024L552 160.897L576.276 315L585.827 309.44C585.827 309.44 610.5 320.362 612.49 310.234C614.48 300.106 613.931 260.19 613.931 260.19L610.699 188.079C610.699 188.079 599.357 162.859 599.357 162.064C599.357 161.27 583.001 148.958 583.001 148.958L575.281 143L569.311 143.024Z" fill="#E5E8EF"/>
<path opacity="0.1" d="M569.8 145.406L565 155.153L569.8 160.189C569.8 160.189 587 194.738 583.6 215.227L587.2 282.661L598.8 294L608 283.433L603.6 222.165C603.6 222.165 591.8 171.639 579.4 155.925L575.8 142L569.8 145.406Z" fill="black"/>
<path d="M569.8 144.406L565 154.153L569.8 159.189C569.8 159.189 587 193.738 583.6 214.227L587.2 281.661L598.8 293L608 282.433L603.6 221.165C603.6 221.165 591.8 170.639 579.4 154.925L575.8 141L569.8 144.406Z" fill="#BC8487"/>
<path opacity="0.1" d="M592 101.229C587.613 108.205 584.159 114.349 581.459 119.755C578.616 120.583 575.666 121.002 572.702 121C562.772 121 557.051 114.222 551.427 107.024C550.142 105.391 545.916 105.771 545 103.853C546.101 97.701 546.743 93 546.743 93L592 101.229Z" fill="black"/>
<path d="M603 89.5016C603 96.7655 600.407 103.791 595.688 109.313C590.969 114.836 584.435 118.493 577.26 119.626C570.085 120.76 562.741 119.296 556.55 115.497C550.358 111.698 545.726 105.815 543.486 98.9046C541.246 91.9947 541.546 84.5123 544.332 77.8038C547.117 71.0953 552.206 65.6012 558.681 62.3101C565.157 59.0191 572.594 58.1471 579.655 59.8512C586.716 61.5553 592.938 65.7236 597.199 71.6059C600.97 76.8109 603 83.0742 603 89.5016V89.5016Z" fill="#FFC5D3"/>
<path opacity="0.1" d="M563.034 158L538.316 128.036C538.316 128.036 536.032 127.114 543.746 119C543.746 119 572.074 141.189 573.831 144.958C575.589 148.727 563.034 158 563.034 158Z" fill="black"/>
<path d="M562.034 156L537.316 126.036C537.316 126.036 535.032 125.114 542.746 117C542.746 117 571.074 139.189 572.831 142.958C574.589 146.727 562.034 156 562.034 156Z" fill="#E5E8EF"/>
<path d="M626 349C626 349 621.201 346.129 621.201 342.74C621.201 339.35 618.801 291.501 618.801 291.501C618.801 291.501 615.282 262.943 611.602 240.246C609.443 226.872 607.227 215.524 605.659 213.275L605.595 213.179C601.396 207.796 602.196 181.479 576 143C576.352 143.239 585.382 149.555 591.997 152.729C593.344 153.404 594.756 153.939 596.213 154.324C602.212 155.72 621.809 163.296 621.209 175.458C620.609 187.62 622.609 215.532 622.609 215.532V272.736L626 349Z" fill="#5F5570"/>
<path d="M626 163.57C626 163.57 634.182 186.702 633.013 192.485C631.844 198.267 651.909 221 651.909 221L671 207.44C671 207.44 663.792 192.684 664.766 188.297C665.74 183.91 659.701 174.538 659.701 174.538L660.091 159C660.091 159 656.584 165.74 626 163.57Z" fill="#5F5570"/>
<path opacity="0.1" d="M596.976 71.8166L581.909 72.3999C580.437 72.39 578.971 72.578 577.547 72.9589C572.163 74.652 569.68 80.5008 569.482 85.7584C569.284 91.0159 566.31 96.9053 560.545 97.367C559.971 97.4666 559.382 97.3328 558.903 96.9944C558.537 96.597 558.295 96.0982 558.205 95.5605C557.378 92.497 556.1 89.5797 554.415 86.9087C552.036 87.3462 550.275 89.6549 549.656 92.069C549.038 94.4831 549.204 97.0268 549.212 99.53C549.22 102.709 548.919 105.881 548.316 109C545.858 105.74 544.058 102.013 543.022 98.0363C541.986 94.0595 541.735 89.912 542.282 85.8349C542.828 81.7578 544.163 77.8324 546.209 74.287C548.254 70.7415 550.968 67.6467 554.195 65.1825C557.421 62.7183 561.095 60.9338 565.002 59.9327C568.91 58.9317 572.973 58.734 576.956 59.3513C580.939 59.9686 584.762 61.3885 588.203 63.5284C591.644 65.6684 594.634 68.4857 597 71.8166H596.976Z" fill="black"/>
<path d="M577.162 72.6832C578.577 72.3118 580.036 72.1285 581.499 72.1381L599.69 71.4587C602.355 71.356 605.328 71.119 607.118 69.1361C607.761 68.379 608.234 67.4927 608.506 66.537C608.974 65.0101 609.112 63.4005 608.909 61.816C608.707 60.2316 608.169 58.7087 607.331 57.3494C605.226 53.9919 601.535 52.0406 598.019 50.2394C594.745 48.4875 591.384 46.9054 587.949 45.4994C575.188 40.6444 561.06 40.8478 548.444 46.0682C547.197 46.5476 546.016 47.1819 544.927 47.9563C543.406 49.2617 542.111 50.8099 541.095 52.5383L535.11 61.5759C534.284 62.6794 533.647 63.9128 533.225 65.2256C532.098 69.5153 535.591 73.805 535.228 78.2211C535.023 80.4173 533.864 82.4318 533.651 84.6279C533.367 87.464 534.66 90.1579 535.93 92.7412L546.449 114C548.147 109.043 549.008 103.836 548.996 98.5951C548.996 96.154 548.791 93.6734 549.437 91.3192C550.084 88.965 551.803 86.7135 554.168 86.2869C555.849 88.8904 557.122 91.7356 557.946 94.7241C558.033 95.2491 558.274 95.736 558.639 96.1224C559.115 96.4532 559.701 96.5837 560.272 96.4858C566.036 96.0355 568.945 90.3475 569.158 85.1651C569.371 79.9828 571.808 74.3343 577.162 72.6832Z" fill="#8F7080"/>
<path d="M452 413.933L459.401 412L571 417.552L558.717 419L452 413.933Z" fill="#7B728F"/>
<path opacity="0.1" d="M452 413.933L459.401 412L571 417.552L558.717 419L452 413.933Z" fill="black"/>
<path d="M575 525L560.195 523.629L555 523.153V441.247L556.371 422.232L556.673 418H571.948L575 525Z" fill="#7B728F"/>
<path opacity="0.1" d="M570 522L558.896 520.693L555 520.239V442.161L556.026 424.04L556.251 420H567.707L570 522Z" fill="black"/>
<path d="M490 413.752C490 413.752 497.283 397.719 500.339 397.221C503.394 396.723 509 397.221 509 397.221L508.504 401.867C508.504 401.867 501.024 402.46 498.661 415L490 413.752Z" fill="#7B728F"/>
<path opacity="0.1" d="M490 413.752C490 413.752 497.283 397.719 500.339 397.221C503.394 396.723 509 397.221 509 397.221L508.504 401.867C508.504 401.867 501.024 402.46 498.661 415L490 413.752Z" fill="black"/>
<path d="M518.17 395C518.17 395 538.406 405.128 535.762 417L524.777 416.386C524.777 416.386 519.488 398.684 515.322 397.759C511.156 396.834 518.17 395 518.17 395Z" fill="#7B728F"/>
<path d="M592 239.517V240.099L591.602 306.502C591.602 306.502 581.44 362.324 578.651 364.517C575.862 366.71 514.695 360.729 514.695 360.729L487.001 173.927C486.802 142.029 509.316 143.026 509.316 143.026C512.305 138.241 526.65 134.453 526.65 134.453L534.619 126.678L534.874 126.319C535.404 125.529 536.087 124.854 536.883 124.334V124.334C538.524 123.385 539.568 124.637 540.166 125.873C540.435 126.453 540.643 127.06 540.788 127.683C573.072 151.375 592 239.517 592 239.517Z" fill="#5F5570"/>
<path opacity="0.1" d="M591 240.422V241C581.036 222.78 542.646 153.75 532.143 150.312L536.186 147.539C536.186 147.539 538.881 145.955 533.927 144.371C533.927 144.371 526.198 145.361 526 136.053L534.18 127.973L536.178 126L539.444 127.529C539.712 128.105 539.919 128.708 540.062 129.327C572.174 152.863 591 240.422 591 240.422Z" fill="black"/>
<path d="M592 239.422V240C582.036 221.78 543.646 152.75 533.143 149.312L537.186 146.539C537.186 146.539 539.881 144.955 534.927 143.371C534.927 143.371 527.198 144.361 527 135.053L535.18 126.973L537.178 125L540.444 126.529C540.712 127.105 540.919 127.708 541.062 128.327C573.174 151.863 592 239.422 592 239.422Z" fill="#433A59"/>
<path opacity="0.1" d="M606 214L605.937 213.905C601.831 208.543 602.614 182.328 577 144C577.344 144.238 586.174 150.53 592.642 153.691L590.835 159.744L594.746 161.865L606 214Z" fill="black"/>
<path d="M605 213L604.937 212.905C600.831 207.543 601.614 181.328 576 143C576.344 143.238 585.174 149.53 591.642 152.691L589.835 158.744L593.746 160.865L605 213Z" fill="#433A59"/>
<path opacity="0.1" d="M574.717 137L573 143.706C573 143.706 574.256 150.419 581.786 151L583 147.802C583 147.802 574.876 142.986 574.717 137Z" fill="black"/>
<path d="M574.717 136L573 143.185C573 143.185 574.256 150.378 581.786 151L583 147.574C583 147.574 574.876 142.413 574.717 136Z" fill="#E5E8EF"/>
<path opacity="0.1" d="M564 419L559.732 524L555 523.522V441.239L556.248 422.137L564 419Z" fill="black"/>
<path d="M453.184 459.409L450 516.003L558.256 525L563 419L453.184 459.409Z" fill="#7B728F"/>
<path opacity="0.1" d="M451 465.055L453.117 415L564 420.085L558.723 473L451 465.055Z" fill="black"/>
<path d="M450 464.055L452.117 414L563 419.085L557.723 472L450 464.055Z" fill="#7B728F"/>
<path d="M510 464H496V479H510V464Z" fill="#C3BBC8"/>
<path d="M498.556 362L496.582 367.437C496.582 367.437 492.435 397.243 497.569 400.868C502.703 404.493 517.906 404.694 518.695 402.882C519.485 401.069 525.014 380.528 525.014 380.528C525.014 380.528 529.95 395.632 532.517 394.423C535.083 393.215 526.593 364.505 526.593 364.505L498.556 362Z" fill="#FFC5D3"/>
<path opacity="0.1" d="M496 339.899V368.835C496 368.835 517.618 372.882 527 365.889C527 365.889 518.23 337.875 521.493 330.793C524.757 323.71 496 339.899 496 339.899Z" fill="black"/>
<path d="M496 339.633V367.864C496 367.864 517.618 371.812 527 364.989C527 364.989 518.23 337.659 521.493 330.749C524.757 323.839 496 339.633 496 339.633Z" fill="#E5E8EF"/>
<path opacity="0.1" d="M493.932 172.931L488.278 175.917C488.278 175.917 487.268 187.86 486.662 189.453C486.057 191.045 486.662 207.169 486.662 207.169L486.388 239.816C486.388 239.816 485.515 257.134 486.388 263.305C487.26 269.476 488.238 292.966 488.238 292.966C488.238 292.966 493.698 315.858 491.679 324.02C489.659 332.181 491.881 350.495 495.314 348.902C498.747 347.31 530.452 341.139 532.067 339.945C533.683 338.75 532.875 327.603 532.067 326.209C531.259 324.816 526.413 305.905 526.817 301.525C527.221 297.146 525.403 258.727 525.403 258.727C525.403 258.727 528.432 217.72 529.644 208.165C530.856 198.61 527.221 170.542 523.99 170.144C520.758 169.746 511.299 148.048 493.932 172.931Z" fill="black"/>
<path d="M492.764 170.931L487.229 173.917C487.229 173.917 486.241 185.86 485.648 187.453C485.055 189.045 485.648 205.169 485.648 205.169L485.379 237.816C485.379 237.816 484.526 255.134 485.379 261.305C486.233 267.476 487.19 290.966 487.19 290.966C487.19 290.966 492.534 313.858 490.558 322.02C488.581 330.181 490.755 348.495 494.115 346.902C497.475 345.31 528.506 339.139 530.087 337.945C531.668 336.75 530.878 325.603 530.087 324.209C529.297 322.816 524.553 303.905 524.948 299.525C525.344 295.146 523.565 256.727 523.565 256.727C523.565 256.727 526.529 215.72 527.715 206.165C528.901 196.61 525.344 168.542 522.181 168.144C519.019 167.746 509.761 146.048 492.764 170.931Z" fill="#5F5570"/>
<g opacity="0.1">
<path opacity="0.1" d="M552.659 83.1167C550.273 83.5462 548.507 85.813 547.886 88.1832C547.266 90.5533 547.433 93.0508 547.441 95.5084C547.456 100.785 546.591 106.027 544.88 111.018L534.262 89.6148C534.055 89.1933 533.84 88.7558 533.634 88.3184C534.125 89.7913 534.734 91.2223 535.455 92.5974L546.073 114.001C547.784 109.009 548.649 103.767 548.634 98.4911C548.634 96.0334 548.435 93.536 549.08 91.1658C549.724 88.7956 551.466 86.5288 553.852 86.0993C554.622 87.3057 555.31 88.5626 555.912 89.8614C555.104 87.49 554.011 85.2253 552.659 83.1167V83.1167Z" fill="black"/>
<path opacity="0.1" d="M607.674 57.3072C608.141 59.2639 608.075 61.31 607.483 63.2326C607.206 64.1953 606.726 65.0875 606.075 65.8494C604.27 67.8457 601.303 68.0844 598.583 68.1878L580.242 68.8718C578.763 68.862 577.29 69.0465 575.859 69.4206C570.467 71.0829 567.969 76.8254 567.771 81.9873C567.572 87.1492 564.589 92.9315 558.807 93.3848C558.231 93.4826 557.64 93.3513 557.16 93.019V93.019C557.343 93.536 557.518 94.0609 557.669 94.6097C557.751 95.1385 557.993 95.6297 558.361 96.0175C558.841 96.3498 559.432 96.4811 560.008 96.3834C565.83 95.93 568.757 90.2034 568.972 84.9858C569.186 79.7682 571.668 74.0814 577.06 72.4191C578.491 72.0451 579.964 71.8605 581.443 71.8703L599.784 71.1863C602.472 71.0829 605.471 70.8443 607.276 68.8479C607.927 68.086 608.407 67.1938 608.684 66.2312C609.135 64.7537 609.278 63.1994 609.104 61.6645C608.93 60.1295 608.444 58.6465 607.674 57.3072V57.3072Z" fill="black"/>
</g>
<path opacity="0.1" d="M578 383.439C578 383.439 584.878 379.806 587.53 380.008C590.183 380.21 614 411 614 411L578 383.439Z" fill="black"/>
<path opacity="0.1" d="M507 178C507 178 494.68 183.505 495.006 187.308C495.333 191.111 507 178 507 178Z" fill="black"/>
<path opacity="0.1" d="M501 196C501 196 487.435 212.438 490.432 212.987C493.43 213.537 501 196 501 196Z" fill="black"/>
<path opacity="0.1" d="M544.955 221C544.955 221 546.089 259.178 537 264L544.955 221Z" fill="black"/>
<path opacity="0.1" d="M495 322C495 322 504.569 317.161 506.766 318.128C508.962 319.094 495 322 495 322Z" fill="black"/>
<path opacity="0.1" d="M496 328.944C496 328.944 502.457 329.279 505.52 328.311C508.582 327.343 496 328.944 496 328.944Z" fill="black"/>
<path opacity="0.1" d="M637 190C637 190 644.613 211 649 211Z" fill="black"/>
<path opacity="0.1" d="M533 592C533 592 546.803 587.5 548.838 592C550.874 596.5 533 592 533 592Z" fill="black"/>
<path opacity="0.1" d="M489.21 537C489.21 537 485.872 542.213 490.284 543.8C494.695 545.387 489.21 537 489.21 537Z" fill="black"/>
<path opacity="0.1" d="M581 464C581 464 591.348 472.738 596.235 472.995C601.122 473.251 581 464 581 464Z" fill="black"/>
<path d="M414 498.054C414 499.681 413.778 501 413.5 501C413.222 501 413 499.713 413 498.054C413 496.394 413.278 497.192 413.556 497.192C413.833 497.192 414 496.426 414 498.054Z" fill="#FFD037"/>
<path d="M416.815 500.509C414.859 501.566 413.15 502.203 413.009 501.941C412.868 501.679 414.322 500.597 416.278 499.54C418.233 498.484 417.467 499.252 417.608 499.54C417.749 499.828 418.771 499.462 416.815 500.509Z" fill="#FFD037"/>
<defs>
<linearGradient id="paint0_linear" x1="560.004" y1="647.002" x2="560.004" y2="38.982" gradientUnits="userSpaceOnUse">
<stop stop-color="#808080" stop-opacity="0.25"/>
<stop offset="0.54" stop-color="#808080" stop-opacity="0.12"/>
<stop offset="1" stop-color="#808080" stop-opacity="0.1"/>
</linearGradient>
<clipPath id="clip0">
<rect width="825.211" height="661.163" fill="white"/>
</clipPath>
</defs>
</svg>
