<svg width="447" height="431" viewBox="0 0 447 431" fill="none" xmlns="http://www.w3.org/2000/svg">
<rect width="447" height="431" fill="#E5E5E5"/>
<path d="M274.855 414H16V113.911L55.1112 70.6156H274.855V414Z" fill="url(#paint0_linear)"/>
<path d="M270.859 404.874H20.5739V116.253L58.387 74.6099H270.859V404.874Z" fill="#FAFAFA"/>
<path d="M166.941 110.258H45.0076V130.792H166.941V110.258Z" fill="#E0E0E0"/>
<path d="M134.606 166.445H45.2529V186.978H134.606V166.445Z" fill="#E0E0E0"/>
<path d="M245.679 250.863H45.2529V326.154H245.679V250.863Z" fill="#6C63FF"/>
<path d="M245.679 110.544H200.261V131.077H245.679V110.544Z" fill="#F5F5F5"/>
<path d="M245.679 142.489H200.261V163.022H245.679V142.489Z" fill="#F5F5F5"/>
<path d="M62.2864 74.6099V120.242H20.5739V116.253L58.2848 74.6099H62.2864Z" fill="url(#paint1_linear)"/>
<path d="M20.4717 116.253L58.2848 74.6099V116.253H20.4717Z" fill="#EEEEEE"/>
<path d="M354.284 385.478H95.4284V85.3892L134.54 42.0988H354.284V385.478Z" fill="url(#paint2_linear)"/>
<path d="M350.287 376.352H100.002V87.7307L137.815 46.0881H350.287V376.352Z" fill="#FAFAFA"/>
<path d="M246.369 81.7417H124.436V102.275H246.369V81.7417Z" fill="#E0E0E0"/>
<path d="M214.034 137.923H124.681V158.456H214.034V137.923Z" fill="#E0E0E0"/>
<path d="M325.107 222.346H124.681V297.637H325.107V222.346Z" fill="#6C63FF"/>
<path d="M325.107 82.0274H279.69V102.56H325.107V82.0274Z" fill="#F5F5F5"/>
<path d="M325.107 113.967H279.69V134.5H325.107V113.967Z" fill="#F5F5F5"/>
<path d="M141.715 46.0881V91.72H100.002V87.7307L137.713 46.0881H141.715Z" fill="url(#paint3_linear)"/>
<path d="M99.9002 87.7307L137.713 46.0881V87.7307H99.9002Z" fill="#EEEEEE"/>
<path d="M432 360.384H173.145V60.2955L212.251 17H432V360.384Z" fill="url(#paint4_linear)"/>
<path d="M427.998 351.258H177.714V62.6319L215.532 20.9944H427.998V351.258Z" fill="white"/>
<path d="M324.085 56.6429H202.152V77.1759H324.085V56.6429Z" fill="#E0E0E0"/>
<path d="M291.751 112.83H202.398V133.363H291.751V112.83Z" fill="#E0E0E0"/>
<path d="M402.824 197.247H202.398V272.539H402.824V197.247Z" fill="#6C63FF"/>
<path d="M402.824 56.9285H357.406V77.4616H402.824V56.9285Z" fill="#E0E0E0"/>
<path d="M402.824 88.8683H357.406V109.401H402.824V88.8683Z" fill="#E0E0E0"/>
<path d="M402.824 120.813H357.406V141.346H402.824V120.813Z" fill="#E0E0E0"/>
<path d="M219.431 20.9944V66.6263H177.714V62.6319L215.43 20.9944H219.431Z" fill="url(#paint5_linear)"/>
<path d="M177.611 62.6319L215.43 20.9944V62.6319H177.611Z" fill="#EEEEEE"/>
<defs>
<linearGradient id="paint0_linear" x1="145.43" y1="414" x2="145.43" y2="70.6156" gradientUnits="userSpaceOnUse">
<stop offset="0.01" stop-color="#808080" stop-opacity="0.25"/>
<stop offset="0.54" stop-color="#808080" stop-opacity="0.12"/>
<stop offset="1" stop-color="#808080" stop-opacity="0.1"/>
</linearGradient>
<linearGradient id="paint1_linear" x1="41.4302" y1="120.242" x2="41.4302" y2="74.6099" gradientUnits="userSpaceOnUse">
<stop stop-color="#B3B3B3" stop-opacity="0.25"/>
<stop offset="0.54" stop-color="#B3B3B3" stop-opacity="0.1"/>
<stop offset="1" stop-color="#B3B3B3" stop-opacity="0.05"/>
</linearGradient>
<linearGradient id="paint2_linear" x1="105884" y1="248068" x2="105884" y2="16936.4" gradientUnits="userSpaceOnUse">
<stop offset="0.01" stop-color="#808080" stop-opacity="0.25"/>
<stop offset="0.54" stop-color="#808080" stop-opacity="0.12"/>
<stop offset="1" stop-color="#808080" stop-opacity="0.1"/>
</linearGradient>
<linearGradient id="paint3_linear" x1="8658.56" y1="6730.25" x2="8658.56" y2="2648.02" gradientUnits="userSpaceOnUse">
<stop stop-color="#B3B3B3" stop-opacity="0.25"/>
<stop offset="0.54" stop-color="#B3B3B3" stop-opacity="0.1"/>
<stop offset="1" stop-color="#B3B3B3" stop-opacity="0.05"/>
</linearGradient>
<linearGradient id="paint4_linear" x1="145324" y1="231156" x2="145324" y2="17" gradientUnits="userSpaceOnUse">
<stop offset="0.01" stop-color="#808080" stop-opacity="0.25"/>
<stop offset="0.54" stop-color="#808080" stop-opacity="0.12"/>
<stop offset="1" stop-color="#808080" stop-opacity="0.1"/>
</linearGradient>
<linearGradient id="paint5_linear" x1="15080.9" y1="4460.07" x2="15080.9" y2="378.292" gradientUnits="userSpaceOnUse">
<stop stop-color="#B3B3B3" stop-opacity="0.25"/>
<stop offset="0.54" stop-color="#B3B3B3" stop-opacity="0.1"/>
<stop offset="1" stop-color="#B3B3B3" stop-opacity="0.05"/>
</linearGradient>
</defs>
</svg>
